<svg height="260pt" preserveAspectRatio="xMidYMid meet" viewBox="0 0 260 260" width="260pt" xmlns="http://www.w3.org/2000/svg"><g transform="matrix(.1 0 0 -.1 0 260)"><path d="m0 1300v-1300h1300 1300v1300 1300h-1300-1300zm1506 830c44-11 126-43 183-71 281-141 461-437 461-759 0-243-93-456-274-628-70-66-105-90-198-135-144-71-234-92-388-90-145 1-239 25-379 94-281 141-461 437-461 759 0 426 309 784 735 850 83 12 227 4 321-20z"/><path d="m1157 2074c-298-54-546-289-617-586-64-268 16-554 209-747 113-113 258-188 416-216 110-19 160-19 270 0 377 66 645 388 645 775 0 218-78 408-229 559-113 113-258 188-416 216-105 18-174 18-278-1z"/></g></svg>