<?xml version="1.0" standalone="no"?>
<!DOCTYPE svg PUBLIC "-//W3C//DTD SVG 20010904//EN"
 "http://www.w3.org/TR/2001/REC-SVG-20010904/DTD/svg10.dtd">
<svg version="1.0" xmlns="http://www.w3.org/2000/svg"
 width="260.000000pt" height="260.000000pt" viewBox="0 0 260.000000 260.000000"
 preserveAspectRatio="xMidYMid meet">
<metadata>
Created by potrace 1.11, written by Peter Selinger 2001-2013
</metadata>
<g transform="translate(0.000000,260.000000) scale(0.100000,-0.100000)"
fill="#000000" stroke="none">
<path d="M0 1300 l0 -1300 1300 0 1300 0 0 1300 0 1300 -1300 0 -1300 0 0
-1300z m1506 830 c44 -11 126 -43 183 -71 281 -141 461 -437 461 -759 0 -243
-93 -456 -274 -628 -70 -66 -105 -90 -198 -135 -144 -71 -234 -92 -388 -90
-145 1 -239 25 -379 94 -281 141 -461 437 -461 759 0 426 309 784 735 850 83
12 227 4 321 -20z"/>
<path d="M1157 2074 c-298 -54 -546 -289 -617 -586 -64 -268 16 -554 209 -747
113 -113 258 -188 416 -216 110 -19 160 -19 270 0 377 66 645 388 645 775 0
218 -78 408 -229 559 -113 113 -258 188 -416 216 -105 18 -174 18 -278 -1z"/>
</g>
</svg>
